# Blender 5.0.1
# www.blender.org
mtllib arbol4.mtl
o Cube
v 1.338990 1.435853 -1.398683
v 1.338990 1.435853 1.597777
v 1.338990 -1.055774 1.597777
v -1.224089 1.435853 -1.398683
v -1.224089 -1.055774 -1.398683
v 0.057451 -1.067498 -1.398683
v 0.057451 1.424129 -1.398683
v 0.307467 -1.067498 -1.369895
v 0.307467 1.424129 -1.369895
v 0.547875 -1.067498 -1.284637
v 0.547875 1.424129 -1.284637
v 0.769436 -1.067498 -1.146186
v 0.769436 1.424129 -1.146186
v 0.963636 -1.067498 -0.959862
v 0.963636 1.424129 -0.959862
v 1.123012 -1.067498 -0.732825
v 1.123012 1.424129 -0.732825
v 1.241439 -1.067498 -0.473801
v 1.241439 1.424129 -0.473801
v 1.314366 -1.067498 -0.192743
v 1.314366 1.424129 -0.192743
v 1.338990 -1.067498 0.099547
v 1.338990 1.424129 0.099547
v 1.314366 -1.067498 0.391838
v 1.314366 1.424129 0.391838
v 1.241439 -1.067498 0.672895
v 1.241439 1.424129 0.672895
v 1.123012 -1.067498 0.931919
v 1.123012 1.424129 0.931919
v 0.963636 -1.067498 1.158956
v 0.963636 1.424129 1.158956
v 0.769436 -1.067498 1.345280
v 0.769436 1.424129 1.345280
v 0.547875 -1.067498 1.483732
v 0.547875 1.424129 1.483732
v 0.307467 -1.067498 1.568989
v 0.307467 1.424129 1.568989
v 0.057451 -1.067498 1.597777
v 0.057451 1.424129 1.597777
v -0.192565 -1.067498 1.568989
v -0.192565 1.424129 1.568989
v -0.432973 -1.067498 1.483732
v -0.432973 1.424129 1.483732
v -0.654535 -1.067498 1.345280
v -0.654535 1.424129 1.345280
v -0.848735 -1.067498 1.158956
v -0.848735 1.424129 1.158956
v -1.008110 -1.067498 0.931919
v -1.008110 1.424129 0.931919
v -1.126537 -1.067498 0.672895
v -1.126537 1.424129 0.672895
v -1.199464 -1.067498 0.391838
v -1.199464 1.424129 0.391838
v -1.224089 -1.067498 0.099547
v -1.224089 1.424129 0.099547
v -1.199464 -1.067498 -0.192743
v -1.199464 1.424129 -0.192743
v -1.126537 -1.067498 -0.473801
v -1.126537 1.424129 -0.473801
v -1.008110 -1.067498 -0.732825
v -1.008110 1.424129 -0.732825
v -0.848735 -1.067498 -0.959862
v -0.848735 1.424129 -0.959862
v -0.654535 -1.067498 -1.146186
v -0.654535 1.424129 -1.146186
v -0.432973 -1.067498 -1.284637
v -0.432973 1.424129 -1.284637
v -0.192565 -1.067498 -1.369895
v -0.192565 1.424129 -1.369895
vn 0.1144 -0.0000 -0.9934
vn 0.3342 -0.0000 -0.9425
vn 0.5299 -0.0000 -0.8480
vn 0.6923 -0.0000 -0.7216
vn 0.8185 -0.0000 -0.5746
vn 0.9095 -0.0000 -0.4158
vn 0.9679 -0.0000 -0.2512
vn 0.9965 -0.0000 -0.0839
vn 0.9965 -0.0000 0.0839
vn 0.9679 -0.0000 0.2512
vn 0.9095 -0.0000 0.4158
vn 0.8185 -0.0000 0.5746
vn 0.6923 -0.0000 0.7216
vn 0.5299 -0.0000 0.8480
vn 0.3342 -0.0000 0.9425
vn 0.1144 -0.0000 0.9934
vn -0.1144 -0.0000 0.9934
vn -0.3342 -0.0000 0.9425
vn -0.5299 -0.0000 0.8480
vn -0.6923 -0.0000 0.7216
vn -0.8185 -0.0000 0.5746
vn -0.9095 -0.0000 0.4158
vn -0.9679 -0.0000 0.2512
vn -0.9965 -0.0000 0.0839
vn -0.9965 -0.0000 -0.0839
vn -0.9679 -0.0000 -0.2512
vn -0.9095 -0.0000 -0.4158
vn -0.8185 -0.0000 -0.5746
vn -0.6923 -0.0000 -0.7216
vn -0.5299 -0.0000 -0.8480
vn -0.0000 1.0000 -0.0000
vn -0.3342 -0.0000 -0.9425
vn -0.1144 -0.0000 -0.9934
vn -0.0000 -1.0000 -0.0000
vt 1.000000 0.500000
vt 1.000000 1.000000
vt 0.968750 1.000000
vt 0.968750 0.500000
vt 0.937500 1.000000
vt 0.937500 0.500000
vt 0.906250 1.000000
vt 0.906250 0.500000
vt 0.875000 1.000000
vt 0.875000 0.500000
vt 0.843750 1.000000
vt 0.843750 0.500000
vt 0.812500 1.000000
vt 0.812500 0.500000
vt 0.781250 1.000000
vt 0.781250 0.500000
vt 0.750000 1.000000
vt 0.750000 0.500000
vt 0.718750 1.000000
vt 0.718750 0.500000
vt 0.687500 1.000000
vt 0.687500 0.500000
vt 0.656250 1.000000
vt 0.656250 0.500000
vt 0.625000 1.000000
vt 0.625000 0.500000
vt 0.593750 1.000000
vt 0.593750 0.500000
vt 0.562500 1.000000
vt 0.562500 0.500000
vt 0.531250 1.000000
vt 0.531250 0.500000
vt 0.500000 1.000000
vt 0.500000 0.500000
vt 0.468750 1.000000
vt 0.468750 0.500000
vt 0.437500 1.000000
vt 0.437500 0.500000
vt 0.406250 1.000000
vt 0.406250 0.500000
vt 0.375000 1.000000
vt 0.375000 0.500000
vt 0.343750 1.000000
vt 0.343750 0.500000
vt 0.312500 1.000000
vt 0.312500 0.500000
vt 0.281250 1.000000
vt 0.281250 0.500000
vt 0.250000 1.000000
vt 0.250000 0.500000
vt 0.218750 1.000000
vt 0.218750 0.500000
vt 0.187500 1.000000
vt 0.187500 0.500000
vt 0.156250 1.000000
vt 0.156250 0.500000
vt 0.125000 1.000000
vt 0.125000 0.500000
vt 0.093750 1.000000
vt 0.093750 0.500000
vt 0.062500 1.000000
vt 0.062500 0.500000
vt 0.296822 0.485388
vt 0.250000 0.490000
vt 0.203178 0.485388
vt 0.158156 0.471731
vt 0.116663 0.449553
vt 0.080294 0.419706
vt 0.050447 0.383337
vt 0.028269 0.341844
vt 0.014612 0.296822
vt 0.010000 0.250000
vt 0.014612 0.203178
vt 0.028269 0.158156
vt 0.050447 0.116663
vt 0.080294 0.080294
vt 0.116663 0.050447
vt 0.158156 0.028269
vt 0.203178 0.014612
vt 0.250000 0.010000
vt 0.296822 0.014612
vt 0.341844 0.028269
vt 0.383337 0.050447
vt 0.419706 0.080294
vt 0.449553 0.116663
vt 0.471731 0.158156
vt 0.485388 0.203178
vt 0.490000 0.250000
vt 0.485388 0.296822
vt 0.471731 0.341844
vt 0.449553 0.383337
vt 0.419706 0.419706
vt 0.383337 0.449553
vt 0.341844 0.471731
vt 0.031250 1.000000
vt 0.031250 0.500000
vt 0.000000 1.000000
vt 0.000000 0.500000
vt 0.750000 0.490000
vt 0.796822 0.485388
vt 0.841844 0.471731
vt 0.883337 0.449553
vt 0.919706 0.419706
vt 0.949553 0.383337
vt 0.971731 0.341844
vt 0.985388 0.296822
vt 0.990000 0.250000
vt 0.985388 0.203178
vt 0.971731 0.158156
vt 0.949553 0.116663
vt 0.919706 0.080294
vt 0.883337 0.050447
vt 0.841844 0.028269
vt 0.796822 0.014612
vt 0.750000 0.010000
vt 0.703178 0.014612
vt 0.658156 0.028269
vt 0.616663 0.050447
vt 0.580294 0.080294
vt 0.550447 0.116663
vt 0.528269 0.158156
vt 0.514612 0.203178
vt 0.510000 0.250000
vt 0.514612 0.296822
vt 0.528269 0.341844
vt 0.550447 0.383337
vt 0.580294 0.419706
vt 0.616663 0.449553
vt 0.658156 0.471731
vt 0.703178 0.485388
s 0
usemtl Material
f 6/1/1 7/2/1 9/3/1 8/4/1
f 8/4/2 9/3/2 11/5/2 10/6/2
f 10/6/3 11/5/3 13/7/3 12/8/3
f 12/8/4 13/7/4 15/9/4 14/10/4
f 14/10/5 15/9/5 17/11/5 16/12/5
f 16/12/6 17/11/6 19/13/6 18/14/6
f 18/14/7 19/13/7 21/15/7 20/16/7
f 20/16/8 21/15/8 23/17/8 22/18/8
f 22/18/9 23/17/9 25/19/9 24/20/9
f 24/20/10 25/19/10 27/21/10 26/22/10
f 26/22/11 27/21/11 29/23/11 28/24/11
f 28/24/12 29/23/12 31/25/12 30/26/12
f 30/26/13 31/25/13 33/27/13 32/28/13
f 32/28/14 33/27/14 35/29/14 34/30/14
f 34/30/15 35/29/15 37/31/15 36/32/15
f 36/32/16 37/31/16 39/33/16 38/34/16
f 38/34/17 39/33/17 41/35/17 40/36/17
f 40/36/18 41/35/18 43/37/18 42/38/18
f 42/38/19 43/37/19 45/39/19 44/40/19
f 44/40/20 45/39/20 47/41/20 46/42/20
f 46/42/21 47/41/21 49/43/21 48/44/21
f 48/44/22 49/43/22 51/45/22 50/46/22
f 50/46/23 51/45/23 53/47/23 52/48/23
f 52/48/24 53/47/24 55/49/24 54/50/24
f 54/50/25 55/49/25 57/51/25 56/52/25
f 56/52/26 57/51/26 59/53/26 58/54/26
f 58/54/27 59/53/27 61/55/27 60/56/27
f 60/56/28 61/55/28 63/57/28 62/58/28
f 62/58/29 63/57/29 65/59/29 64/60/29
f 64/60/30 65/59/30 67/61/30 66/62/30
f 9/63/31 7/64/31 69/65/31 67/66/31 65/67/31 63/68/31 61/69/31 59/70/31 57/71/31 55/72/31 53/73/31 51/74/31 49/75/31 47/76/31 45/77/31 43/78/31 41/79/31 39/80/31 37/81/31 35/82/31 33/83/31 31/84/31 29/85/31 27/86/31 25/87/31 23/88/31 21/89/31 19/90/31 17/91/31 15/92/31 13/93/31 11/94/31
f 66/62/32 67/61/32 69/95/32 68/96/32
f 68/96/33 69/95/33 7/97/33 6/98/33
f 6/99/34 8/100/34 10/101/34 12/102/34 14/103/34 16/104/34 18/105/34 20/106/34 22/107/34 24/108/34 26/109/34 28/110/34 30/111/34 32/112/34 34/113/34 36/114/34 38/115/34 40/116/34 42/117/34 44/118/34 46/119/34 48/120/34 50/121/34 52/122/34 54/123/34 56/124/34 58/125/34 60/126/34 62/127/34 64/128/34 66/129/34 68/130/34
l 2 3
l 4 5
l 1 2
l 4 1
o Cono
v -0.119115 1.197378 5.492207
v 0.842253 1.197378 5.390894
v 1.766676 1.197378 5.090852
v 2.618629 1.197378 4.603610
v 3.365372 1.197378 3.947891
v 3.978208 1.197378 3.148896
v 4.433587 1.197378 2.237329
v 4.714008 1.197378 1.248220
v 4.808694 1.197378 0.219582
v 4.714008 1.197378 -0.809056
v 4.433587 1.197378 -1.798164
v 3.978208 1.197378 -2.709731
v 3.365372 1.197378 -3.508727
v 2.618629 1.197378 -4.164445
v 1.766676 1.197378 -4.651688
v 0.842253 1.197378 -4.951730
v -0.119115 1.197378 -5.053043
v -1.080483 1.197378 -4.951730
v -2.004906 1.197378 -4.651688
v -2.856859 1.197378 -4.164445
v -3.603602 1.197378 -3.508727
v -4.216438 1.197378 -2.709731
v -4.671817 1.197378 -1.798164
v -4.952238 1.197378 -0.809056
v -5.046924 1.197378 0.219582
v -4.952238 1.197378 1.248220
v -4.671817 1.197378 2.237329
v -4.216438 1.197378 3.148896
v -3.603602 1.197378 3.947891
v -2.856859 1.197378 4.603610
v -2.004906 1.197378 5.090852
v -1.080483 1.197378 5.390894
v -0.119115 4.307365 0.219582
vn 0.0535 0.8601 0.5073
vn 0.1581 0.8589 0.4871
vn 0.2561 0.8567 0.4478
vn 0.3435 0.8538 0.3912
vn 0.4170 0.8507 0.3199
vn 0.4742 0.8479 0.2369
vn 0.5133 0.8458 0.1455
vn 0.5331 0.8446 0.0491
vn 0.5331 0.8446 -0.0491
vn 0.5133 0.8458 -0.1455
vn 0.4742 0.8479 -0.2369
vn 0.4170 0.8507 -0.3199
vn 0.3435 0.8538 -0.3912
vn 0.2561 0.8567 -0.4478
vn 0.1581 0.8589 -0.4871
vn 0.0535 0.8601 -0.5073
vn -0.0535 0.8601 -0.5073
vn -0.1581 0.8589 -0.4871
vn -0.2561 0.8567 -0.4478
vn -0.3435 0.8538 -0.3912
vn -0.4170 0.8507 -0.3199
vn -0.4742 0.8479 -0.2369
vn -0.5133 0.8458 -0.1455
vn -0.5331 0.8446 -0.0491
vn -0.5331 0.8446 0.0491
vn -0.5133 0.8458 0.1455
vn -0.4742 0.8479 0.2369
vn -0.4170 0.8507 0.3199
vn -0.3435 0.8538 0.3912
vn -0.2561 0.8567 0.4478
vn -0.0000 -1.0000 -0.0000
vn -0.1581 0.8589 0.4871
vn -0.0535 0.8601 0.5073
vt 0.250000 0.490000
vt 0.250000 0.250000
vt 0.296822 0.485388
vt 0.341844 0.471731
vt 0.383337 0.449553
vt 0.419706 0.419706
vt 0.449553 0.383337
vt 0.471731 0.341844
vt 0.485388 0.296822
vt 0.490000 0.250000
vt 0.485388 0.203178
vt 0.471731 0.158156
vt 0.449553 0.116663
vt 0.419706 0.080294
vt 0.383337 0.050447
vt 0.341844 0.028269
vt 0.296822 0.014612
vt 0.250000 0.010000
vt 0.203178 0.014612
vt 0.158156 0.028269
vt 0.116663 0.050447
vt 0.080294 0.080294
vt 0.050447 0.116663
vt 0.028269 0.158156
vt 0.014612 0.203178
vt 0.010000 0.250000
vt 0.014612 0.296822
vt 0.028269 0.341844
vt 0.050447 0.383337
vt 0.080294 0.419706
vt 0.116663 0.449553
vt 0.158156 0.471731
vt 0.750000 0.490000
vt 0.796822 0.485388
vt 0.841844 0.471731
vt 0.883337 0.449553
vt 0.919706 0.419706
vt 0.949553 0.383337
vt 0.971731 0.341844
vt 0.985388 0.296822
vt 0.990000 0.250000
vt 0.985388 0.203178
vt 0.971731 0.158156
vt 0.949553 0.116663
vt 0.919706 0.080294
vt 0.883337 0.050447
vt 0.841844 0.028269
vt 0.796822 0.014612
vt 0.750000 0.010000
vt 0.703178 0.014612
vt 0.658156 0.028269
vt 0.616663 0.050447
vt 0.580294 0.080294
vt 0.550447 0.116663
vt 0.528269 0.158156
vt 0.514612 0.203178
vt 0.510000 0.250000
vt 0.514612 0.296822
vt 0.528269 0.341844
vt 0.550447 0.383337
vt 0.580294 0.419706
vt 0.616663 0.449553
vt 0.658156 0.471731
vt 0.703178 0.485388
vt 0.203178 0.485388
s 0
f 70/131/35 71/133/35 102/132/35
f 71/133/36 72/134/36 102/132/36
f 72/134/37 73/135/37 102/132/37
f 73/135/38 74/136/38 102/132/38
f 74/136/39 75/137/39 102/132/39
f 75/137/40 76/138/40 102/132/40
f 76/138/41 77/139/41 102/132/41
f 77/139/42 78/140/42 102/132/42
f 78/140/43 79/141/43 102/132/43
f 79/141/44 80/142/44 102/132/44
f 80/142/45 81/143/45 102/132/45
f 81/143/46 82/144/46 102/132/46
f 82/144/47 83/145/47 102/132/47
f 83/145/48 84/146/48 102/132/48
f 84/146/49 85/147/49 102/132/49
f 85/147/50 86/148/50 102/132/50
f 86/148/51 87/149/51 102/132/51
f 87/149/52 88/150/52 102/132/52
f 88/150/53 89/151/53 102/132/53
f 89/151/54 90/152/54 102/132/54
f 90/152/55 91/153/55 102/132/55
f 91/153/56 92/154/56 102/132/56
f 92/154/57 93/155/57 102/132/57
f 93/155/58 94/156/58 102/132/58
f 94/156/59 95/157/59 102/132/59
f 95/157/60 96/158/60 102/132/60
f 96/158/61 97/159/61 102/132/61
f 97/159/62 98/160/62 102/132/62
f 98/160/63 99/161/63 102/132/63
f 99/161/64 100/162/64 102/132/64
f 70/163/65 101/194/65 100/193/65 99/192/65 98/191/65 97/190/65 96/189/65 95/188/65 94/187/65 93/186/65 92/185/65 91/184/65 90/183/65 89/182/65 88/181/65 87/180/65 86/179/65 85/178/65 84/177/65 83/176/65 82/175/65 81/174/65 80/173/65 79/172/65 78/171/65 77/170/65 76/169/65 75/168/65 74/167/65 73/166/65 72/165/65 71/164/65
f 100/162/66 101/195/66 102/132/66
f 101/195/67 70/131/67 102/132/67
o Cono.001
v 0.958419 2.564101 -2.412463
v 1.691360 2.555117 -2.106286
v 2.363637 2.553673 -1.717522
v 2.949414 2.559824 -1.261110
v 3.426181 2.573334 -0.754591
v 3.775615 2.593683 -0.217429
v 3.984288 2.620091 0.329732
v 4.044180 2.651541 0.865866
v 3.952991 2.686826 1.370369
v 3.714224 2.724589 1.823853
v 3.337054 2.763379 2.208892
v 2.835979 2.801706 2.510687
v 2.230251 2.838096 2.717643
v 1.543149 2.871151 2.821805
v 0.801079 2.899601 2.819170
v 0.032558 2.922353 2.709840
v -0.732882 2.938532 2.498016
v -1.465823 2.947516 2.191839
v -2.138100 2.948961 1.803074
v -2.723877 2.942810 1.346662
v -3.200644 2.929300 0.840143
v -3.550077 2.908950 0.302981
v -3.758750 2.882542 -0.244180
v -3.818643 2.851092 -0.780314
v -3.727453 2.815807 -1.284817
v -3.488686 2.778044 -1.738301
v -3.111517 2.739254 -2.123339
v -2.610441 2.700927 -2.425135
v -2.004714 2.664537 -2.632091
v -1.317612 2.631482 -2.736252
v -0.575542 2.603032 -2.733617
v 0.192980 2.580280 -2.624287
v 0.307526 7.801754 -0.275247
vn 0.3589 0.3905 -0.8477
vn 0.4598 0.3983 -0.7937
vn 0.5563 0.4157 -0.7196
vn 0.6470 0.4428 -0.6208
vn 0.7274 0.4790 -0.4914
vn 0.7886 0.5215 -0.3259
vn 0.8160 0.5645 -0.1243
vn 0.7944 0.5989 0.1017
vn 0.7170 0.6160 0.3262
vn 0.5941 0.6136 0.5201
vn 0.4469 0.5971 0.6661
vn 0.2953 0.5746 0.7633
vn 0.1508 0.5526 0.8197
vn 0.0175 0.5350 0.8447
vn -0.1048 0.5233 0.8457
vn -0.2179 0.5182 0.8270
vn -0.3238 0.5200 0.7904
vn -0.4241 0.5286 0.7353
vn -0.5193 0.5440 0.6591
vn -0.6081 0.5654 0.5573
vn -0.6862 0.5911 0.4240
vn -0.7447 0.6171 0.2542
vn -0.7697 0.6365 0.0486
vn -0.7466 0.6406 -0.1797
vn -0.6692 0.6234 -0.4043
vn -0.5478 0.5874 -0.5957
vn -0.4030 0.5415 -0.7378
vn -0.2540 0.4954 -0.8307
vn -0.1120 0.4556 -0.8831
vn 0.0195 0.4247 -0.9051
vn -0.0385 -0.9973 0.0628
vn 0.1406 0.4036 -0.9041
vn 0.2530 0.3923 -0.8844
vt 0.250000 0.490000
vt 0.250000 0.250000
vt 0.296822 0.485388
vt 0.341844 0.471731
vt 0.383337 0.449553
vt 0.419706 0.419706
vt 0.449553 0.383337
vt 0.471731 0.341844
vt 0.485388 0.296822
vt 0.490000 0.250000
vt 0.485388 0.203178
vt 0.471731 0.158156
vt 0.449553 0.116663
vt 0.419706 0.080294
vt 0.383337 0.050447
vt 0.341844 0.028269
vt 0.296822 0.014612
vt 0.250000 0.010000
vt 0.203178 0.014612
vt 0.158156 0.028269
vt 0.116663 0.050447
vt 0.080294 0.080294
vt 0.050447 0.116663
vt 0.028269 0.158156
vt 0.014612 0.203178
vt 0.010000 0.250000
vt 0.014612 0.296822
vt 0.028269 0.341844
vt 0.050447 0.383337
vt 0.080294 0.419706
vt 0.116663 0.449553
vt 0.158156 0.471731
vt 0.750000 0.490000
vt 0.796822 0.485388
vt 0.841844 0.471731
vt 0.883337 0.449553
vt 0.919706 0.419706
vt 0.949553 0.383337
vt 0.971731 0.341844
vt 0.985388 0.296822
vt 0.990000 0.250000
vt 0.985388 0.203178
vt 0.971731 0.158156
vt 0.949553 0.116663
vt 0.919706 0.080294
vt 0.883337 0.050447
vt 0.841844 0.028269
vt 0.796822 0.014612
vt 0.750000 0.010000
vt 0.703178 0.014612
vt 0.658156 0.028269
vt 0.616663 0.050447
vt 0.580294 0.080294
vt 0.550447 0.116663
vt 0.528269 0.158156
vt 0.514612 0.203178
vt 0.510000 0.250000
vt 0.514612 0.296822
vt 0.528269 0.341844
vt 0.550447 0.383337
vt 0.580294 0.419706
vt 0.616663 0.449553
vt 0.658156 0.471731
vt 0.703178 0.485388
vt 0.203178 0.485388
s 0
f 103/196/68 135/197/68 104/198/68
f 104/198/69 135/197/69 105/199/69
f 105/199/70 135/197/70 106/200/70
f 106/200/71 135/197/71 107/201/71
f 107/201/72 135/197/72 108/202/72
f 108/202/73 135/197/73 109/203/73
f 109/203/74 135/197/74 110/204/74
f 110/204/75 135/197/75 111/205/75
f 111/205/76 135/197/76 112/206/76
f 112/206/77 135/197/77 113/207/77
f 113/207/78 135/197/78 114/208/78
f 114/208/79 135/197/79 115/209/79
f 115/209/80 135/197/80 116/210/80
f 116/210/81 135/197/81 117/211/81
f 117/211/82 135/197/82 118/212/82
f 118/212/83 135/197/83 119/213/83
f 119/213/84 135/197/84 120/214/84
f 120/214/85 135/197/85 121/215/85
f 121/215/86 135/197/86 122/216/86
f 122/216/87 135/197/87 123/217/87
f 123/217/88 135/197/88 124/218/88
f 124/218/89 135/197/89 125/219/89
f 125/219/90 135/197/90 126/220/90
f 126/220/91 135/197/91 127/221/91
f 127/221/92 135/197/92 128/222/92
f 128/222/93 135/197/93 129/223/93
f 129/223/94 135/197/94 130/224/94
f 130/224/95 135/197/95 131/225/95
f 131/225/96 135/197/96 132/226/96
f 132/226/97 135/197/97 133/227/97
f 103/228/98 104/229/98 105/230/98 106/231/98 107/232/98 108/233/98 109/234/98 110/235/98 111/236/98 112/237/98 113/238/98 114/239/98 115/240/98 116/241/98 117/242/98 118/243/98 119/244/98 120/245/98 121/246/98 122/247/98 123/248/98 124/249/98 125/250/98 126/251/98 127/252/98 128/253/98 129/254/98 130/255/98 131/256/98 132/257/98 133/258/98 134/259/98
f 133/227/99 135/197/99 134/260/99
f 134/260/100 135/197/100 103/196/100
